<?xml version="1.0" encoding="UTF-8"?>
<svg width="144px" height="144px" viewBox="0 0 144 144" version="1.1" xmlns="http://www.w3.org/2000/svg" xmlns:xlink="http://www.w3.org/1999/xlink">
    <!-- Generator: Sketch 58 (84663) - https://sketch.com -->
    <title>Group 3</title>
    <desc>Created with Sketch.</desc>
    <g id="Page-2" stroke="none" stroke-width="1" fill="none" fill-rule="evenodd">
        <g id="11." transform="translate(-116.000000, -197.000000)">
            <g id="Group-3" transform="translate(116.000000, 197.000000)">
                <circle id="Oval" fill="#D8D8D8" opacity="0.2" cx="72" cy="72" r="72"></circle>
                <g id="id" transform="translate(15.000000, 37.000000)" fill="#818080" fill-rule="nonzero">
                    <g id="Group">
                        <path d="M6.58748842,0 L107.09374,0 C108.97588,0 110.669805,0.723653846 111.799089,1.80913462 C113.116587,3.07552885 113.681229,4.52283654 113.681229,6.33197115 L113.681229,63.8624519 C113.681229,65.6715865 113.116587,67.2998077 111.799089,68.3852885 C110.669805,69.6516827 108.97588,70.3753365 107.09374,70.3753365 L6.58748842,70.3753365 C4.70534887,70.3753365 3.19963723,69.6516827 1.88213955,68.3852885 C0.752855819,67.2998077 -3.60822483e-16,65.6715865 -3.60822483e-16,63.8624519 L-3.60822483e-16,6.33197115 C-3.60822483e-16,4.52283654 0.752855819,3.07552885 1.88213955,1.80913462 C3.19963723,0.723653846 4.70534887,0 6.58748842,0 Z M107.09374,3.07552885 L6.58748842,3.07552885 C5.64641864,3.07552885 4.70534887,3.43735577 4.140707,3.98009615 C3.57606514,4.52283654 3.19963723,5.42740385 3.19963723,6.33197115 L3.19963723,63.8624519 C3.19963723,64.7670192 3.57606514,65.6715865 4.140707,66.2143269 C4.70534887,66.9379808 5.64641864,67.2998077 6.58748842,67.2998077 L107.09374,67.2998077 C108.03481,67.2998077 108.97588,66.9379808 109.540522,66.2143269 C110.293377,65.6715865 110.669805,64.7670192 110.669805,63.8624519 L110.669805,6.33197115 C110.669805,5.42740385 110.293377,4.52283654 109.540522,3.98009615 C108.97588,3.43735577 108.03481,3.07552885 107.09374,3.07552885 Z" id="Shape"></path>
                        <polygon id="Path" points="1.50571164 15.5585577 112.175517 15.5585577 112.175517 18.6340865 1.50571164 18.6340865"></polygon>
                        <path d="M41.595284,48.6657212 C41.7834979,47.7611538 42.7245677,47.3993269 43.4774235,47.5802404 C44.4184933,47.7611538 44.7949212,48.6657212 44.6067073,49.389375 C43.2892096,54.093125 40.0895724,57.8923077 35.9488654,60.2441827 L35.9488654,60.2441827 C31.8081583,62.5960577 26.9145955,63.3197115 21.8328187,62.0533173 C16.9392559,60.7869231 12.9867629,57.7113942 10.7281954,53.7312981 L10.5399815,53.5503846 C8.28141401,49.7512019 7.52855819,44.8665385 8.84605587,40.1627885 C10.1635536,35.4590385 13.3631908,31.6598558 17.5038978,29.3079808 L17.5038978,29.3079808 C21.6446048,27.1370192 26.5381676,26.4133654 31.6199444,27.4988462 C32.3728002,27.8606731 32.9374421,28.5843269 32.5610142,29.4888942 C32.3728002,30.2125481 31.6199444,30.7552885 30.6788746,30.574375 C26.7263816,29.4888942 22.5856746,30.0316346 19.1978234,32.0216827 L19.0096094,32.0216827 C15.6217582,33.8308173 12.9867629,37.0872596 11.8574791,41.0673558 C10.7281954,44.8665385 11.4810512,48.8466346 13.3631908,52.1030769 L13.3631908,52.2839904 C15.4335443,55.5404327 18.6331815,58.0732212 22.7738885,59.1587019 C26.7263816,60.0632692 30.8670886,59.5205288 34.2549398,57.7113942 L34.4431537,57.7113942 C37.8310049,55.7213462 40.4660003,52.6458173 41.595284,48.6657212 Z" id="Path"></path>
                        <path d="M26.7263816,32.0216827 C28.7967351,32.0216827 30.6788746,32.7453365 31.9963723,34.0117308 C33.31387,35.4590385 34.2549398,37.2681731 34.2549398,39.2582212 C34.2549398,41.2482692 33.31387,43.0574038 31.9963723,44.3237981 C30.6788746,45.5901923 28.7967351,46.4947596 26.7263816,46.4947596 C24.6560281,46.4947596 22.7738885,45.5901923 21.4563908,44.3237981 C20.1388932,43.0574038 19.1978234,41.2482692 19.1978234,39.2582212 C19.1978234,37.2681731 20.1388932,35.4590385 21.4563908,34.0117308 C22.7738885,32.7453365 24.6560281,32.0216827 26.7263816,32.0216827 L26.7263816,32.0216827 Z M29.7378048,36.1826923 C28.984949,35.4590385 27.8556653,35.0972115 26.7263816,35.0972115 C25.5970978,35.0972115 24.4678141,35.4590385 23.7149583,36.1826923 C22.7738885,37.0872596 22.3974606,37.9918269 22.3974606,39.2582212 C22.3974606,40.3437019 22.7738885,41.4291827 23.7149583,42.1528365 C24.4678141,42.8764904 25.5970978,43.4192308 26.7263816,43.4192308 C27.8556653,43.4192308 28.984949,42.8764904 29.7378048,42.1528365 C30.6788746,41.4291827 31.0553025,40.3437019 31.0553025,39.2582212 C31.0553025,37.9918269 30.6788746,37.0872596 29.7378048,36.1826923 Z" id="Shape"></path>
                        <path d="M15.9981862,57.1686538 C15.4335443,57.8923077 14.4924745,58.0732212 13.7396187,57.5304808 C12.9867629,56.9877404 12.7985489,56.0831731 13.3631908,55.3595192 L18.8213955,47.7611538 C19.1978234,47.2184135 19.5742513,47.0375 20.1388932,47.0375 L33.31387,47.0375 C33.8785118,47.0375 34.4431537,47.3993269 34.6313677,47.7611538 L40.0895724,55.3595192 C40.6542142,56.0831731 40.4660003,56.9877404 39.7131444,57.5304808 C38.9602886,58.0732212 38.0192189,57.8923077 37.454577,57.1686538 L32.5610142,50.1130288 L20.891749,50.1130288 L15.9981862,57.1686538 Z" id="Path"></path>
                        <path d="M76.0384377,27.8606731 C75.0973679,27.8606731 74.5327261,27.1370192 74.5327261,26.2324519 C74.5327261,25.3278846 75.0973679,24.7851442 76.0384377,24.7851442 L97.3066146,24.7851442 C98.2476844,24.7851442 99.0005402,25.3278846 99.0005402,26.2324519 C99.0005402,27.1370192 98.2476844,27.8606731 97.3066146,27.8606731 L76.0384377,27.8606731 Z" id="Path"></path>
                        <path d="M61.5459632,35.278125 C60.7931074,35.278125 60.0402516,34.5544712 60.0402516,33.6499038 C60.0402516,32.92625 60.7931074,32.2025962 61.5459632,32.2025962 L97.3066146,32.2025962 C98.2476844,32.2025962 99.0005402,32.92625 99.0005402,33.6499038 C99.0005402,34.5544712 98.2476844,35.278125 97.3066146,35.278125 L61.5459632,35.278125 Z" id="Path"></path>
                        <path d="M61.5459632,42.6955769 C60.7931074,42.6955769 60.0402516,41.9719231 60.0402516,41.0673558 C60.0402516,40.3437019 60.7931074,39.6200481 61.5459632,39.6200481 L97.3066146,39.6200481 C98.2476844,39.6200481 99.0005402,40.3437019 99.0005402,41.0673558 C99.0005402,41.9719231 98.2476844,42.6955769 97.3066146,42.6955769 L61.5459632,42.6955769 Z" id="Path"></path>
                        <path d="M61.5459632,50.1130288 C60.7931074,50.1130288 60.0402516,49.389375 60.0402516,48.6657212 C60.0402516,47.7611538 60.7931074,47.0375 61.5459632,47.0375 L97.3066146,47.0375 C98.2476844,47.0375 99.0005402,47.7611538 99.0005402,48.6657212 C99.0005402,49.389375 98.2476844,50.1130288 97.3066146,50.1130288 L61.5459632,50.1130288 Z" id="Path"></path>
                        <path d="M61.5459632,57.5304808 C60.7931074,57.5304808 60.0402516,56.8068269 60.0402516,56.0831731 C60.0402516,55.1786058 60.7931074,54.4549519 61.5459632,54.4549519 L97.3066146,54.4549519 C98.2476844,54.4549519 99.0005402,55.1786058 99.0005402,56.0831731 C99.0005402,56.8068269 98.2476844,57.5304808 97.3066146,57.5304808 L61.5459632,57.5304808 Z" id="Path"></path>
                    </g>
                </g>
            </g>
        </g>
    </g>
</svg>