<?xml version="1.0" encoding="UTF-8"?>
<svg width="144px" height="144px" viewBox="0 0 144 144" version="1.1" xmlns="http://www.w3.org/2000/svg" xmlns:xlink="http://www.w3.org/1999/xlink">
    <!-- Generator: Sketch 58 (84663) - https://sketch.com -->
    <title>Group</title>
    <desc>Created with Sketch.</desc>
    <g id="Page-2" stroke="none" stroke-width="1" fill="none" fill-rule="evenodd">
        <g id="3." transform="translate(-116.000000, -197.000000)">
            <g id="Group" transform="translate(116.000000, 197.000000)">
                <circle id="Oval" fill="#D8D8D8" opacity="0.2" cx="72" cy="72" r="72"></circle>
                <path d="M51.8555556,48.4302511 C49.90019,48.4302511 48.2888889,50.0402657 48.2888889,51.9940962 L48.2888889,92.3843638 C48.2888889,94.3381825 49.90019,95.9482089 51.8555556,95.9482089 L118.433333,95.9482089 C120.388699,95.9482089 122,94.3381825 122,92.3843638 L122,51.9940962 C122,50.0402657 120.388699,48.4302511 118.433333,48.4302511 L51.8555556,48.4302511 Z M52.7472222,50.8061478 L117.541667,50.8061478 L85.1444444,78.9086341 L52.7472222,50.8061478 Z M50.6666667,52.1425897 L73.1440378,71.6695145 L50.6666667,91.976066 L50.6666667,52.1425897 Z M119.622222,52.1425897 L119.622222,91.976066 L97.1448511,71.6695145 L119.622222,52.1425897 Z M16.1888889,56.7458896 C15.5322656,56.7458896 15,57.2777341 15,57.9338379 C15,58.5899418 15.5322656,59.1217863 16.1888889,59.1217863 L39.9666667,59.1217863 C40.62329,59.1217863 41.1555556,58.5899418 41.1555556,57.9338379 C41.1555556,57.2777341 40.62329,56.7458896 39.9666667,56.7458896 L16.1888889,56.7458896 Z M20.9444444,71.0012935 C20.2878211,71.0012935 19.7555556,71.533138 19.7555556,72.1892419 C19.7555556,72.8453458 20.2878211,73.3771902 20.9444444,73.3771902 L39.9666667,73.3771902 C40.62329,73.3771902 41.1555556,72.8453458 41.1555556,72.1892419 C41.1555556,71.533138 40.62329,71.0012935 39.9666667,71.0012935 L20.9444444,71.0012935 Z M74.9273711,73.1916327 L84.3642956,81.3958416 C84.8116681,81.7845074 85.4772208,81.7845074 85.9245933,81.3958416 L95.3615178,73.1916327 L117.913194,93.5723122 L52.3756944,93.5723122 L74.9273711,73.1916327 Z M25.7,85.2566737 C25.0433767,85.2566737 24.5111111,85.7885182 24.5111111,86.4446221 C24.5111111,87.100726 25.0433767,87.6325704 25.7,87.6325704 L39.9666667,87.6325704 C40.62329,87.6325704 41.1555556,87.100726 41.1555556,86.4446221 C41.1555556,85.7885182 40.62329,85.2566737 39.9666667,85.2566737 L25.7,85.2566737 Z" id="Shape" fill="#818080" fill-rule="nonzero"></path>
            </g>
        </g>
    </g>
</svg>