<?xml version="1.0" encoding="UTF-8"?>
<svg width="144px" height="144px" viewBox="0 0 144 144" version="1.1" xmlns="http://www.w3.org/2000/svg" xmlns:xlink="http://www.w3.org/1999/xlink">
    <!-- Generator: Sketch 58 (84663) - https://sketch.com -->
    <title>Group 4</title>
    <desc>Created with Sketch.</desc>
    <g id="Page-2" stroke="none" stroke-width="1" fill="none" fill-rule="evenodd">
        <g id="4." transform="translate(-116.000000, -197.000000)">
            <g id="Group-4" transform="translate(116.000000, 197.000000)">
                <circle id="Oval" fill="#D8D8D8" opacity="0.2" cx="72" cy="72" r="72"></circle>
                <g id="noun_Email_1513870" transform="translate(29.000000, 26.000000)" fill="#818080" fill-rule="nonzero" stroke="#727476">
                    <g id="Group">
                        <path d="M10.7,0.1 L10.7,26.8 L0.5,33.9 L0.5,91.9 L85.5,91.9 L85.5,33.9 L75.2,26.8 L75.2,0.1 L10.7,0.1 Z M27.2,66.2 L2.5,89 L2.5,37.4 L27.2,66.2 Z M43,54.3 L81.5,89.9 L4.5,89.9 L43,54.3 Z M59.2,66.6 L83.5,37.5 L83.5,89 L59.2,66.6 Z M73.2,2.1 L73.2,46.6 L57.7,65.2 L43,51.6 L28.7,64.8 L12.7,46.2 L12.7,2.1 L73.2,2.1 Z M10.7,43.9 L2.9,34.7 L10.7,29.3 L10.7,43.9 Z M83.1,34.7 L75.2,44.2 L75.2,29.3 L83.1,34.7 Z" id="Shape"></path>
                        <polygon id="Path" points="51.9 21.6 50.6 20.1 40.4 29.7 34.6 23.7 33.1 25.1 40.3 32.5"></polygon>
                        <path d="M43,44.5002693 C50.5724125,44.5404948 57.421742,40.0101505 60.3476812,33.0257428 C63.2736203,26.0413351 61.6985054,17.981785 56.3582993,12.6128681 C51.0180931,7.24395116 42.9671045,5.62564447 35.9671087,8.51409194 C28.9671128,11.4025394 24.4,18.2274792 24.4,25.8 C24.4,36.0887981 32.711349,44.4449797 43,44.5002693 Z M43,9.19970029 C49.7725492,9.15956579 55.8988893,13.2134944 58.5093445,19.4628608 C61.1197998,25.7122272 59.6973864,32.9193848 54.9083856,37.7083856 C50.1193848,42.4973864 42.9122272,43.9197998 36.6628608,41.3093445 C30.4134944,38.6988893 26.3595658,32.5725492 26.3997003,25.8 C26.3997003,16.6320732 33.8320732,9.19970029 43,9.19970029 L43,9.19970029 Z" id="Shape"></path>
                    </g>
                </g>
            </g>
        </g>
    </g>
</svg>